<svg width="64" height="64" viewBox="0 0 64 64" fill="none" xmlns="http://www.w3.org/2000/svg">
<path d="M43.5714 31.9955C43.6178 30.4267 43.3444 28.8578 42.7719 27.3996C42.1993 25.9361 41.338 24.6094 40.2393 23.4934C39.1407 22.3773 37.8305 21.5034 36.3915 20.919C34.9524 20.3347 33.405 20.0504 31.8473 20.0925C24.9202 20.0925 20.0046 25.0622 20.0046 31.9955C20.0046 38.9287 24.9305 43.9774 31.8473 43.9774C38.7641 43.9774 43.561 38.7445 43.561 31.9955H43.5714V31.9955ZM44.4379 15.802H49.111V48.2574H43.6229V40.6344C41.632 45.6146 36.8969 48.8891 30.532 48.8891C20.8093 48.8891 14.4443 41.461 14.4443 31.9375C14.4443 22.4141 20.9279 15.1123 30.8415 15.1123C33.4721 15.0808 36.0614 15.7862 38.3154 17.155C40.5746 18.5237 42.4057 20.4979 43.6178 22.8616V23.1933L44.4327 15.8073L44.4379 15.802Z" fill="#131414"/>
</svg>