<svg width="102" height="28" viewBox="0 0 102 28" fill="none" xmlns="http://www.w3.org/2000/svg">
<g clip-path="url(#clip0_2315_8712)">
<path d="M9.4729 0.00146617C5.86412 0.00146617 2.9441 2.34912 2.9441 5.69908C2.9441 7.87059 4.34837 8.79284 6.13245 9.29446C6.70243 9.45476 6.70243 10.172 6.13245 10.3323C4.45648 10.8036 2.93712 11.6953 2.93712 13.5249L2.93705 24.4203C2.93705 25.8873 2.32162 26.4132 0.649613 26.643C0.451598 26.6701 0.300659 26.8366 0.300659 27.0363V27.283C0.300659 27.4987 0.475685 27.672 0.691583 27.672H9.11912C9.33507 27.672 9.51007 27.4972 9.51007 27.2815V27.0371C9.51007 26.8365 9.3574 26.6694 9.15825 26.6439C7.36989 26.4155 6.75011 25.891 6.75011 24.4189C6.75011 22.4458 6.75025 16.2663 6.75041 12.9314C6.75048 11.351 9.36909 10.518 10.3914 10.3445C11.0424 10.234 11.0424 9.30006 10.3914 9.1896C7.45263 8.69092 5.62421 6.75538 5.62421 4.57589C5.87741 2.05476 7.22093 1.32956 8.70395 1.32956C10.8021 1.32956 11.5452 3.57349 11.8692 4.5523C11.8887 4.61119 11.9067 4.66551 11.9234 4.71447C12.0959 5.09657 12.5248 5.56131 12.9807 5.56131H13.7942C14.7417 5.56131 15.7303 5.06496 15.7303 3.78843C15.7303 1.90571 13.6548 0.0227782 10.232 0L9.4729 0.00146617Z" fill="#1C3F28"/>
<path fill-rule="evenodd" clip-rule="evenodd" d="M98.2124 2.01572V24.5821C98.2124 25.8765 98.8109 26.4317 100.431 26.0853C100.642 26.0401 100.849 26.1955 100.849 26.4114V26.7907C100.849 26.9027 100.791 27.0074 100.695 27.065C99.5207 27.7696 98.4609 27.9588 97.553 27.9588C95.6168 27.9588 94.5045 27.094 94.5045 24.788C92.7335 26.9705 90.4676 28 87.9959 28C83.5054 28 79.8395 24.4174 79.8395 18.6934C79.8395 12.3518 84.1648 8.81032 88.8198 8.81032C90.5537 8.81032 91.8466 9.28128 92.758 9.61308C93.9683 10.0539 94.5045 10.2492 94.5045 8.76916V5.063C94.5045 3.35486 94.0656 2.05073 92.1854 2.14638C91.9936 2.15616 91.827 2.00643 91.827 1.81393V1.49033C91.827 1.33604 91.9348 1.2028 92.086 1.17082L96.6878 0.780334C97.6237 0.780334 98.2124 1.02741 98.2124 2.01572ZM83.6706 17.0462C83.6706 21.823 86.1836 25.5704 90.0147 25.5704C91.9509 25.5704 94.5045 24.5821 94.5045 21.2878V16.0167C94.5045 11.8988 91.2502 10.0869 88.6553 10.0869C85.4829 10.0869 83.6706 12.8871 83.6706 17.0462Z" fill="#1C3F28"/>
<path fill-rule="evenodd" clip-rule="evenodd" d="M22.4977 28C27.6058 28 32.2608 24.4174 32.2608 18.364C32.2608 12.3518 27.647 8.81036 22.5801 8.81036C17.472 8.81036 12.8582 12.393 12.8582 18.4464C12.8582 24.4586 17.4308 28 22.4977 28ZM23.4452 26.7647C19.5729 26.7647 16.7716 22.2761 16.7716 17.0463C16.7716 12.2695 18.8314 10.0457 21.6738 10.0457C25.5049 10.0457 28.3473 14.4932 28.3473 19.7641C28.3473 24.541 26.2464 26.7647 23.4452 26.7647Z" fill="#1C3F28"/>
<path d="M48.1963 25.241C47.5784 25.941 45.7246 28 42.2231 28C39.1335 28 36.2087 26.1881 36.2087 21.1642V13.2166C36.2087 11.4696 36.1603 10.208 34.2807 10.3036C34.0884 10.3134 33.922 10.1637 33.922 9.97117V9.64755C33.922 9.49327 34.03 9.35999 34.181 9.328L38.3971 8.93755C39.3263 8.93755 39.9162 9.13978 39.9162 10.1281V20.2583C39.9162 23.4291 41.4816 25.6939 44.3652 25.6939C47.2488 25.6939 49.1438 23.3055 49.1438 20.2583V13.2166C49.1438 11.4676 49.131 10.206 47.2153 10.3036C47.0232 10.3134 46.8571 10.1637 46.8571 9.97144V9.64721C46.8571 9.49293 46.9651 9.35965 47.1161 9.32766L51.3956 8.93719C52.3437 8.93719 52.8513 9.13978 52.8513 10.1281V24.6233C52.8513 25.8754 53.4114 26.4359 54.5022 26.3048C54.7123 26.2795 54.911 26.433 54.911 26.6445V27.0094C54.911 27.1143 54.8612 27.2138 54.7728 27.2702C54.0359 27.7407 53.0001 27.9589 52.1097 27.9589C50.3384 27.9589 49.3497 26.9705 49.1025 25.4881C49.0614 25.1586 48.979 24.9115 48.6907 24.9115C48.5162 24.9115 48.4303 25.0002 48.283 25.1525L48.2563 25.18C48.2489 25.1876 48.2413 25.1955 48.2335 25.2034C48.2266 25.2104 48.2196 25.2175 48.2124 25.2248L48.2045 25.2328L48.1963 25.241Z" fill="#1C3F28"/>
<path d="M74.1975 27.6601C75.3938 28.138 77.1284 28.0005 78.5102 27.2479C78.6012 27.1982 78.6558 27.1016 78.6558 26.9978V26.5508C78.6558 26.3603 78.4766 26.2219 78.2883 26.2519C77.1844 26.4272 76.5117 25.9902 76.5117 24.2513V15.1845C76.5117 10.0689 73.5556 8.28052 70.4329 8.28052C67.2211 8.28052 65.594 10.0505 64.8091 10.9043C64.7711 10.9457 64.735 10.985 64.7008 11.0217C64.6141 11.115 64.5327 11.2046 64.4543 11.2909L64.4541 11.2911L64.4529 11.2924C64.3612 11.3933 64.2736 11.4897 64.1863 11.5823C63.8993 11.8143 63.5871 11.5823 63.5199 11.0918C63.444 10.5371 63.2419 10.1443 63.0411 9.84474C61.6322 7.74376 58.2842 8.93201 57.7041 9.26451C57.5376 9.35985 57.467 9.45554 57.467 9.61136V9.93826C57.467 10.1326 57.6292 10.311 57.8236 10.3011C59.4946 10.2459 59.69 10.9663 59.69 12.7307V24.457C59.69 25.9551 59.054 26.4816 57.3208 26.7094C57.1534 26.7315 57.0252 26.8724 57.0252 27.0411V27.4127C57.0252 27.5949 57.173 27.7426 57.3554 27.7426H65.7721C65.9545 27.7426 66.1023 27.5949 66.1023 27.4127V27.0411C66.1023 26.8724 65.9741 26.7315 65.8067 26.7094C64.0735 26.4816 63.4375 25.9551 63.4375 24.457V16.4861C63.4375 13.4084 65.3528 10.9961 68.2676 10.9961C71.2239 10.9961 72.7646 13.3252 72.7646 16.4861V24.6913C72.7646 26.0108 73.172 27.2502 74.1975 27.6601Z" fill="#1C3F28"/>
</g>
<defs>
<clipPath id="clip0_2315_8712">
<rect width="100.8" height="28" fill="white" transform="translate(0.300659)"/>
</clipPath>
</defs>
</svg>